<mxfile host="app.diagrams.net" modified="2022-02-24T00:21:02.261Z" agent="5.0 (Windows NT 10.0; Win64; x64) AppleWebKit/537.36 (KHTML, like Gecko) Chrome/98.0.4758.102 Safari/537.36" etag="OEehg4IiaUfsIcITPesd" version="16.6.3" type="github">
  <diagram id="BxKyW3eYopd-6q6BVUA2" name="Page-1">
    <mxGraphModel dx="2062" dy="412" grid="1" gridSize="10" guides="1" tooltips="1" connect="1" arrows="1" fold="1" page="1" pageScale="1" pageWidth="850" pageHeight="1100" math="0" shadow="0">
      <root>
        <mxCell id="0" />
        <mxCell id="1" parent="0" />
        <mxCell id="VZ-1mS6q5crtG8ooiFN2-10" value="" style="edgeStyle=orthogonalEdgeStyle;rounded=0;orthogonalLoop=1;jettySize=auto;html=1;" edge="1" parent="1" source="VZ-1mS6q5crtG8ooiFN2-1" target="VZ-1mS6q5crtG8ooiFN2-6">
          <mxGeometry relative="1" as="geometry" />
        </mxCell>
        <mxCell id="VZ-1mS6q5crtG8ooiFN2-1" value="Ingrese Numero" style="rounded=0;whiteSpace=wrap;html=1;" vertex="1" parent="1">
          <mxGeometry x="340" y="30" width="120" height="60" as="geometry" />
        </mxCell>
        <mxCell id="VZ-1mS6q5crtG8ooiFN2-2" value="I=1&lt;br&gt;resultado=0" style="rounded=0;whiteSpace=wrap;html=1;" vertex="1" parent="1">
          <mxGeometry x="340" y="520" width="120" height="60" as="geometry" />
        </mxCell>
        <mxCell id="VZ-1mS6q5crtG8ooiFN2-9" value="Si" style="edgeStyle=orthogonalEdgeStyle;rounded=0;orthogonalLoop=1;jettySize=auto;html=1;" edge="1" parent="1" source="VZ-1mS6q5crtG8ooiFN2-3" target="VZ-1mS6q5crtG8ooiFN2-4">
          <mxGeometry relative="1" as="geometry" />
        </mxCell>
        <mxCell id="VZ-1mS6q5crtG8ooiFN2-12" value="" style="edgeStyle=orthogonalEdgeStyle;rounded=0;orthogonalLoop=1;jettySize=auto;html=1;" edge="1" parent="1" source="VZ-1mS6q5crtG8ooiFN2-3" target="VZ-1mS6q5crtG8ooiFN2-2">
          <mxGeometry relative="1" as="geometry" />
        </mxCell>
        <mxCell id="VZ-1mS6q5crtG8ooiFN2-13" value="no" style="edgeLabel;html=1;align=center;verticalAlign=middle;resizable=0;points=[];" vertex="1" connectable="0" parent="VZ-1mS6q5crtG8ooiFN2-12">
          <mxGeometry x="0.25" y="-3" relative="1" as="geometry">
            <mxPoint as="offset" />
          </mxGeometry>
        </mxCell>
        <mxCell id="VZ-1mS6q5crtG8ooiFN2-3" value="Si Numero==0 OR &lt;br&gt;Numero==1" style="rhombus;whiteSpace=wrap;html=1;" vertex="1" parent="1">
          <mxGeometry x="310" y="320" width="180" height="130" as="geometry" />
        </mxCell>
        <mxCell id="VZ-1mS6q5crtG8ooiFN2-4" value="Factorial es 1" style="shape=parallelogram;perimeter=parallelogramPerimeter;whiteSpace=wrap;html=1;fixedSize=1;" vertex="1" parent="1">
          <mxGeometry x="55" y="355" width="120" height="60" as="geometry" />
        </mxCell>
        <mxCell id="VZ-1mS6q5crtG8ooiFN2-8" value="Si" style="edgeStyle=orthogonalEdgeStyle;rounded=0;orthogonalLoop=1;jettySize=auto;html=1;" edge="1" parent="1" source="VZ-1mS6q5crtG8ooiFN2-6" target="VZ-1mS6q5crtG8ooiFN2-7">
          <mxGeometry relative="1" as="geometry" />
        </mxCell>
        <mxCell id="VZ-1mS6q5crtG8ooiFN2-11" value="No" style="edgeStyle=orthogonalEdgeStyle;rounded=0;orthogonalLoop=1;jettySize=auto;html=1;" edge="1" parent="1" source="VZ-1mS6q5crtG8ooiFN2-6" target="VZ-1mS6q5crtG8ooiFN2-3">
          <mxGeometry relative="1" as="geometry" />
        </mxCell>
        <mxCell id="VZ-1mS6q5crtG8ooiFN2-6" value="Si Numero==0 OR &lt;br&gt;Numero==1" style="rhombus;whiteSpace=wrap;html=1;" vertex="1" parent="1">
          <mxGeometry x="310" y="150" width="180" height="130" as="geometry" />
        </mxCell>
        <mxCell id="VZ-1mS6q5crtG8ooiFN2-7" value="No hay factorial para numeros negativos" style="shape=parallelogram;perimeter=parallelogramPerimeter;whiteSpace=wrap;html=1;fixedSize=1;" vertex="1" parent="1">
          <mxGeometry x="10" y="185" width="210" height="60" as="geometry" />
        </mxCell>
      </root>
    </mxGraphModel>
  </diagram>
</mxfile>
